<svg width="32" height="32" xmlns="http://www.w3.org/2000/svg" xmlns:xlink="http://www.w3.org/1999/xlink" overflow="hidden"><defs><clipPath id="clip0"><rect x="498" y="52" width="32" height="32"/></clipPath></defs><g clip-path="url(#clip0)" transform="translate(-498 -52)"><path d="M524.167 57.8333 523.833 54.8333 520.167 58.5 520.367 60.2333 515.033 65.5667C514.567 65.3333 514.033 65.1667 513.467 65.1667 511.633 65.1667 510.133 66.6667 510.133 68.5 510.133 70.3333 511.633 71.8333 513.467 71.8333 515.3 71.8333 516.8 70.3333 516.8 68.5 516.8 67.9333 516.667 67.4333 516.433 66.9667L521.767 61.6333 523.5 61.8333 527.167 58.1667 524.167 57.8333Z" fill="#0F9ED5"/><path d="M524.433 62.7667 524 63.2333 523.367 63.1667 522.667 63.0667C523.6 64.6667 524.167 66.5 524.167 68.5 524.167 74.3667 519.367 79.1667 513.5 79.1667 507.633 79.1667 502.833 74.3667 502.833 68.5 502.833 62.6333 507.633 57.8333 513.5 57.8333 515.467 57.8333 517.333 58.3667 518.933 59.3333L518.867 58.6667 518.767 58 519.233 57.5333 519.467 57.3C517.667 56.3667 515.667 55.8333 513.5 55.8333 506.5 55.8333 500.833 61.5 500.833 68.5 500.833 75.5 506.5 81.1667 513.5 81.1667 520.5 81.1667 526.167 75.5 526.167 68.5 526.167 66.3333 525.633 64.3333 524.667 62.5667L524.433 62.7667Z" fill="#0F9ED5"/><path d="M519.067 66.2333C519.367 66.9333 519.5 67.7 519.5 68.5 519.5 71.8 516.8 74.5 513.5 74.5 510.2 74.5 507.5 71.8 507.5 68.5 507.5 65.2 510.2 62.5 513.5 62.5 514.3 62.5 515.067 62.6667 515.767 62.9333L517.267 61.4333C516.133 60.8333 514.867 60.5 513.5 60.5 509.1 60.5 505.5 64.1 505.5 68.5 505.5 72.9 509.1 76.5 513.5 76.5 517.9 76.5 521.5 72.9 521.5 68.5 521.5 67.1333 521.167 65.8667 520.567 64.7333L519.067 66.2333Z" fill="#0F9ED5"/></g></svg>