<svg width="121" height="120" xmlns="http://www.w3.org/2000/svg" xmlns:xlink="http://www.w3.org/1999/xlink" overflow="hidden"><defs><clipPath id="clip0"><rect x="45" y="52" width="121" height="120"/></clipPath><clipPath id="clip1"><rect x="82" y="94" width="46" height="45"/></clipPath><clipPath id="clip2"><rect x="82" y="94" width="46" height="45"/></clipPath><clipPath id="clip3"><rect x="82" y="94" width="46" height="45"/></clipPath></defs><g clip-path="url(#clip0)" transform="translate(-45 -52)"><path d="M85 37.75C82 37.75 79.5 35.25 79.625 32.125 79.625 29.125 82.125 26.625 85.125 26.625 88.125 26.625 90.625 29.125 90.625 32.125 90.625 33.625 90 35 89 36 87.875 37.125 86.5 37.75 85 37.75ZM79.625 20.375C76.875 21.375 74.75 23.5 73.375 26 71.625 29.375 71.375 33.25 72.75 36.75L78.75 49.75 82.75 58C83.125 58.875 84 59.375 85 59.375 86 59.375 86.875 58.875 87.25 58L91.25 49.75 97.25 36.875C97.875 35.375 98.125 33.75 98.125 32.125 98.125 23.375 89.125 16.75 79.625 20.375Z" fill="#196B24" transform="matrix(1.00833 0 0 1 45 51.9999)"/><path d="M57.5 91 37.5 81 37.5 40.25 57.5 50.25 57.5 91ZM32.5 81 17.5 88.5 17.5 47.75 32.5 40.25 32.5 81ZM101.75 39 101.75 39 98.625 45.75 102.5 47.75 102.5 88.5 87.5 81 87.5 64.375 82.5 64.375 82.5 81 62.5 91 62.5 50.25 71.375 45.75 68.25 39 60 43.125 35 30.625 10 43.125 10 100.625 35 88.125 60 100.625 85 88.125 110 100.625 110 43.125 101.75 39Z" fill="#196B24" transform="matrix(1.00833 0 0 1 45 51.9999)"/><g clip-path="url(#clip1)"><g clip-path="url(#clip2)"><g clip-path="url(#clip3)"><path d="M33.8708 22.5958C34.6958 25.9417 31.2583 29.2417 27.8667 27.8667 25.025 26.8583 23.925 23.5583 25.8958 20.7167 30.3417 14.8042 27.0875 5.5 19.7083 2.29167 23.0542 8.61667 17.9208 14.4375 14.9875 16.8667 12.0542 19.2958 10.0833 21.8167 9.4875 23.2833 6.50833 30.525 10.9542 37.4458 13.9792 39.0958 12.6042 35.9792 11.3208 30.0208 16.7292 24.4292 16.7292 24.4292 15.1708 30.3875 18.5625 34.5125 21.9542 38.6375 21.9083 41.7083 21.9083 41.7083 27.1792 41.7083 32.175 38.5458 34.2833 33.3667 35.8875 30.2958 36.025 25.4375 33.8708 22.5958" fill="#C00000" transform="matrix(1.02273 0 0 1 82.9998 94.9999)"/></g></g></g></g></svg>