<svg width="33" height="32" xmlns="http://www.w3.org/2000/svg" xmlns:xlink="http://www.w3.org/1999/xlink" overflow="hidden"><defs><clipPath id="clip0"><rect x="674" y="53" width="33" height="32"/></clipPath></defs><g clip-path="url(#clip0)" transform="translate(-674 -53)"><path d="M6.66667 4.33333 4.66667 4.33333 4.66667 27.6667 27.6667 27.6667 27.6667 25.6667 6.66667 25.6667 6.66667 4.33333Z" fill="#0F9ED5" transform="matrix(1.03125 0 0 1 674 53)"/><path d="M22.6667 4.33333 27.6667 4.33333 27.6667 23.6667 22.6667 23.6667Z" fill="#0F9ED5" transform="matrix(-1.03125 -1.22465e-16 1.26292e-16 -1 725.906 81)"/><path d="M15.6667 11 20.6667 11 20.6667 23.6667 15.6667 23.6667Z" fill="#0F9ED5" transform="matrix(-1.03125 -1.22465e-16 1.26292e-16 -1 711.469 87.6667)"/><path d="M8.66667 17 13.6667 17 13.6667 23.6667 8.66667 23.6667Z" fill="#0F9ED5" transform="matrix(-1.03125 -1.22465e-16 1.26292e-16 -1 697.031 93.6667)"/><path d="M19.3333 8.91333 19.3333 4.33333 14.7533 4.33333 16.5733 6.15333 8.53 14.1967 9.47 15.1367 17.5133 7.09667 19.3333 8.91333Z" fill="#0F9ED5" transform="matrix(1.03125 0 0 1 674 53)"/></g></svg>