<svg width="61" height="61" xmlns="http://www.w3.org/2000/svg" xmlns:xlink="http://www.w3.org/1999/xlink" overflow="hidden"><defs><clipPath id="clip0"><rect x="398" y="560" width="61" height="61"/></clipPath></defs><g clip-path="url(#clip0)" transform="translate(-398 -560)"><path d="M447.017 584.314 448.198 583.369 448.148 583.011C447.585 579.212 444.526 574.951 438.162 573.502 437.819 573.43 437.482 573.649 437.409 573.993 437.4 574.036 437.396 574.08 437.396 574.125L437.396 575.391C437.401 575.677 437.602 575.922 437.881 575.983 440.901 576.728 442.984 579.948 443.186 583.948L444.338 603.305C444.391 604.184 443.721 604.939 442.842 604.991 442.836 604.991 442.83 604.992 442.824 604.992L442.755 604.992C441.843 604.946 441.133 604.185 441.151 603.272L441.151 592.787C441.151 589.98 438.875 587.704 436.067 587.704L434.854 587.704 434.854 572.708C434.854 570.603 433.147 568.896 431.042 568.896L415.792 568.896C413.686 568.896 411.979 570.603 411.979 572.708L411.979 608.292 409.438 608.292 409.438 612.104 437.396 612.104 437.396 608.292 434.854 608.292 434.854 591.517 436.067 591.517C436.769 591.517 437.338 592.086 437.338 592.787L437.338 603.197C437.307 605.069 438.216 606.833 439.76 607.893 442.241 609.548 445.595 608.877 447.25 606.396 447.902 605.416 448.218 604.251 448.147 603.076ZM415.792 572.708 431.042 572.708 431.042 584.146 415.792 584.146Z" fill="#0F9ED5"/></g></svg>